<?xml version="1.0" standalone="no"?>
<!DOCTYPE svg PUBLIC "-//W3C//DTD SVG 20010904//EN"
 "http://www.w3.org/TR/2001/REC-SVG-20010904/DTD/svg10.dtd">
<svg version="1.0" xmlns="http://www.w3.org/2000/svg"
 width="891.000000pt" height="891.000000pt" viewBox="0 0 891.000000 891.000000"
 preserveAspectRatio="xMidYMid meet">
<metadata>
Created by potrace 1.14, written by Peter Selinger 2001-2017
</metadata>
<g transform="translate(0.000000,891.000000) scale(0.100000,-0.100000)"
fill="#000000" stroke="none">
<path d="M1055 8903 l1060 -3 24 -66 c13 -36 25 -63 27 -61 2 2 -5 30 -16 62
-11 32 -19 60 -17 62 2 2 1514 2 3361 1 l3357 -3 -70 -88 c-39 -48 -71 -92
-71 -97 0 -4 -3 -10 -8 -12 -15 -6 -409 -551 -446 -618 -23 -41 21 19 120 160
106 152 328 453 362 489 9 10 42 53 72 94 38 52 63 77 80 80 14 2 -1982 4
-4435 3 -2453 0 -3983 -2 -3400 -3z"/>
<path d="M4105 8824 c-504 -61 -991 -319 -1436 -763 -64 -64 -134 -141 -155
-171 -33 -45 -133 -206 -162 -259 -6 -10 -34 -14 -107 -15 -117 -2 -136 -10
-212 -88 -65 -67 -88 -112 -108 -207 -9 -42 -34 -155 -55 -251 -21 -96 -46
-224 -55 -285 -28 -196 -76 -488 -90 -555 -110 -521 -137 -705 -134 -921 2
-168 17 -128 -132 -359 -182 -285 -252 -433 -289 -616 -41 -199 -29 -348 37
-481 l26 -53 -27 -52 c-50 -95 -139 -332 -211 -557 -33 -104 -106 -527 -135
-786 -15 -133 -23 -153 -40 -99 -7 21 -16 44 -19 49 -4 6 -20 42 -35 80 -48
122 -87 206 -164 358 -83 166 -148 244 -241 291 -63 32 -111 33 -251 2 l-105
-22 -3 -169 c-2 -128 1 -170 10 -177 10 -5 10 -8 1 -8 -9 0 -12 -308 -13
-1355 l0 -1355 383 0 384 0 6 118 c6 119 21 211 77 472 72 338 106 526 125
688 3 30 0 90 -7 135 l-13 82 -5 -75 c-7 -95 -10 -80 -47 225 -30 255 -37 497
-17 644 6 47 17 138 24 201 23 211 96 611 134 732 34 111 144 423 181 516 l18
44 56 -54 c89 -85 102 -90 29 -9 -38 40 -68 79 -68 86 0 8 9 35 20 61 27 62
18 69 -13 8 l-24 -48 -22 48 c-80 182 -59 443 58 701 37 80 124 228 237 401
l92 141 7 164 c8 185 33 386 70 564 14 66 34 161 45 210 39 183 77 407 131
754 10 68 28 161 40 205 11 45 33 145 49 223 15 77 36 158 46 180 22 46 107
131 151 149 38 16 163 19 163 4 0 -6 -11 -32 -24 -58 -13 -26 -32 -74 -42
-107 -17 -58 -43 -105 -31 -57 7 31 0 28 -19 -10 -20 -39 -16 -109 21 -318 44
-251 95 -640 96 -739 0 -43 3 -59 8 -46 7 18 10 17 28 -15 83 -141 238 -337
374 -470 161 -158 238 -225 352 -305 88 -62 112 -85 89 -85 -5 0 -43 9 -85 19
-80 21 -114 18 -159 -13 -13 -9 -107 -99 -209 -201 -103 -102 -191 -185 -197
-185 -9 0 -276 -163 -432 -265 -36 -23 -76 -47 -88 -54 -31 -16 -23 -2 35 65
96 113 207 296 248 409 65 179 70 222 69 600 -1 187 -6 372 -12 410 -9 62 -10
54 -6 -75 3 -80 7 -173 10 -208 7 -98 -14 -418 -35 -512 -45 -205 -78 -282
-193 -455 -96 -146 -188 -252 -355 -410 -124 -118 -164 -167 -239 -291 -9 -15
-10 -9 -3 26 5 25 20 110 34 190 14 80 30 161 35 180 6 19 10 42 10 50 0 13
-1 13 -11 0 -14 -21 -2 184 17 272 26 126 12 165 -21 56 -10 -33 -40 -106 -66
-160 -27 -55 -59 -122 -70 -151 -12 -29 -32 -75 -45 -103 -54 -118 -84 -290
-84 -479 0 -141 21 -241 75 -347 26 -52 39 -88 32 -88 -7 0 12 -14 41 -31 29
-17 55 -29 58 -26 3 2 -5 40 -16 83 -27 98 -38 283 -21 350 15 60 92 214 138
277 20 27 88 96 152 155 100 91 166 139 381 277 105 68 323 203 377 233 34 19
64 42 66 51 3 9 5 -2 6 -24 2 -73 65 -148 241 -290 63 -51 142 -115 175 -142
121 -98 236 -184 332 -247 72 -47 114 -83 156 -135 32 -39 66 -71 76 -71 12 0
31 27 60 88 24 48 45 89 47 91 2 2 35 -28 72 -67 49 -49 67 -74 61 -84 -17
-26 -9 -78 20 -135 16 -32 45 -92 64 -133 18 -41 42 -83 52 -93 17 -17 17 -27
1 -225 -10 -114 -20 -292 -24 -397 l-7 -190 -42 70 c-37 63 -42 80 -52 170
-37 336 -37 338 -89 447 -42 88 -64 119 -148 209 -55 58 -130 142 -169 187
-38 44 -71 79 -73 77 -7 -7 168 -231 218 -280 105 -104 186 -249 201 -362 4
-38 15 -113 24 -168 23 -151 21 -160 -18 -95 -19 30 -66 109 -106 175 -97 159
-214 335 -219 330 -5 -5 49 -98 229 -396 65 -107 123 -206 129 -220 5 -13 37
-64 69 -114 33 -49 82 -127 111 -172 28 -45 70 -108 93 -140 50 -67 159 -261
155 -273 -3 -9 -369 103 -465 143 -35 14 -63 23 -63 21 0 -16 229 -109 365
-148 88 -26 174 -52 190 -59 94 -41 170 -84 173 -97 1 -9 -20 -27 -58 -48 -33
-18 -60 -35 -60 -37 0 -2 21 5 48 17 26 11 99 42 162 70 63 27 135 58 159 69
49 22 64 20 27 -4 -41 -27 -226 -186 -305 -261 -70 -68 -204 -225 -265 -311
-15 -22 7 -2 49 45 187 205 446 448 559 524 42 28 65 34 49 13 -5 -6 -20 -39
-33 -72 -13 -33 -73 -175 -133 -315 -113 -265 -191 -426 -252 -520 l-35 -54 0
61 c0 195 62 369 217 613 29 47 42 72 28 55 -39 -45 -141 -213 -170 -280 -55
-124 -75 -203 -86 -347 -5 -77 -7 -143 -4 -146 8 -8 48 42 86 107 78 137 125
233 224 466 58 138 127 299 153 360 l47 109 75 29 c41 16 136 50 210 77 171
61 428 158 545 205 50 20 173 65 275 101 102 36 208 74 235 85 35 13 77 20
135 21 73 1 80 3 50 11 -36 9 -164 5 -190 -6 -12 -6 -22 12 -46 75 -18 46 -39
114 -49 151 -10 37 -27 82 -39 100 -24 34 -109 260 -119 314 -5 27 -3 32 19
37 13 4 54 1 90 -5 l66 -11 -6 -37 c-3 -20 -6 -40 -6 -46 0 -5 -15 -9 -32 -9
-43 2 -68 -12 -68 -36 0 -24 8 -25 34 -5 11 8 29 13 40 10 12 -2 39 -7 61 -10
l40 -6 -25 18 -25 18 30 5 c34 6 41 28 47 153 3 60 0 76 -9 73 -16 -6 -16 -4
-2 28 6 13 23 28 38 32 19 5 22 8 9 11 -11 3 -15 11 -12 21 4 11 -1 8 -14 -7
-12 -15 -25 -22 -35 -18 -9 3 -17 1 -19 -5 -3 -7 -15 -9 -31 -4 -39 9 -36 49
7 92 19 19 30 34 24 34 -17 0 -67 -57 -74 -85 -8 -33 14 -55 54 -55 23 0 24
-3 18 -37 -13 -83 -27 -115 -44 -108 -35 13 -139 17 -160 6 -19 -10 -22 -8
-31 26 -6 21 -11 42 -11 46 0 5 -20 60 -45 124 -25 63 -45 127 -45 141 0 36
-30 83 -90 143 -28 28 -50 56 -50 64 0 18 -21 96 -55 205 -30 95 -59 210 -53
213 1 1 17 12 35 24 23 17 40 21 62 17 17 -4 46 -3 66 0 28 6 39 15 57 49 19
39 21 58 22 262 l1 220 -29 49 c-15 26 -49 70 -75 97 l-47 49 44 62 c106 151
291 590 265 630 -3 6 0 14 7 18 10 6 -1 17 -35 37 -27 15 -70 48 -96 73 l-47
45 8 70 c5 39 9 98 9 131 1 65 7 75 55 91 68 22 49 111 -21 100 -32 -6 -33 -5
-33 29 0 19 9 53 21 76 36 70 85 219 102 308 22 119 28 175 36 339 l6 144 46
-84 c89 -160 107 -195 191 -364 47 -93 102 -212 123 -262 21 -51 41 -93 46
-93 25 0 32 291 9 420 -18 107 -68 263 -124 392 -44 101 -197 344 -273 435
-46 55 -53 69 -25 55 22 -12 145 -42 342 -83 137 -29 173 -32 310 -32 158 0
263 18 336 56 26 14 24 14 -42 21 -182 18 -552 98 -683 147 -73 27 -235 109
-351 177 -52 31 -147 86 -210 123 -63 37 -131 78 -150 90 -112 72 -270 144
-470 216 -251 89 -318 105 -605 137 -162 19 -180 19 -340 0z m363 -30 c166
-26 424 -82 502 -108 91 -31 315 -123 390 -161 30 -15 176 -100 324 -187 338
-202 510 -285 673 -327 187 -47 417 -91 481 -91 63 0 31 -18 -55 -30 -139 -20
-305 -8 -528 39 -104 22 -228 51 -273 66 -46 15 -85 25 -87 23 -2 -2 19 -30
46 -63 28 -32 68 -84 88 -114 46 -68 182 -317 211 -386 12 -27 25 -59 30 -70
66 -151 123 -464 103 -572 l-8 -43 -55 118 c-80 171 -338 632 -353 632 -1 0
-3 -71 -3 -158 -2 -152 -24 -346 -44 -381 -7 -13 -9 -10 -10 13 0 34 -12 105
-51 310 -17 86 -29 184 -29 230 -1 83 -15 259 -26 309 -12 55 -13 19 -4 -88 8
-95 6 -232 -12 -758 -1 -24 -18 -52 -18 -30 0 31 -48 259 -110 523 -47 199
-50 253 -32 465 8 97 9 161 3 180 -5 17 -10 23 -10 15 -14 -180 -26 -282 -56
-465 -49 -296 -37 -265 -92 -246 l-46 16 7 145 c3 80 9 209 13 288 4 96 3 142
-4 142 -20 0 -88 -166 -169 -413 -44 -132 -52 -148 -74 -153 -14 -3 -58 -17
-99 -30 -41 -13 -76 -23 -77 -21 -2 2 15 129 37 282 40 284 59 500 39 440 -22
-64 -30 -92 -30 -110 0 -17 -35 -115 -80 -225 -11 -25 -42 -108 -70 -185 -28
-77 -77 -203 -109 -280 -32 -77 -62 -151 -66 -164 -4 -13 -20 -46 -36 -73 -16
-27 -29 -52 -29 -55 0 -7 -62 -108 -110 -178 -15 -22 -46 -75 -70 -118 -23
-43 -45 -76 -47 -73 -3 2 2 17 10 33 43 80 102 248 222 628 79 252 156 610
154 718 l-2 62 -8 -80 c-7 -76 -53 -290 -99 -460 -26 -98 -274 -856 -289 -884
-14 -25 -14 -34 0 -25 7 4 10 1 7 -7 -3 -8 -9 -13 -14 -12 -5 1 -10 -10 -10
-23 -2 -20 7 -13 43 38 105 146 133 181 133 169 0 -6 -9 -58 -20 -114 -45
-238 -61 -334 -90 -541 -28 -196 -31 -240 -29 -435 4 -366 -1 -675 -9 -666
-10 11 -26 63 -102 325 -28 96 -59 204 -70 240 -11 36 -24 106 -30 155 -16
132 -18 1079 -3 1315 7 107 17 272 23 365 6 94 19 253 30 355 11 102 19 219
19 260 l-1 75 -9 -65 c-5 -36 -18 -130 -31 -209 -21 -133 -24 -145 -50 -164
-15 -11 -25 -24 -22 -29 3 -4 -3 -7 -13 -6 -10 1 -92 -34 -183 -79 -327 -161
-341 -164 -755 -165 -218 -1 -269 -3 -205 -9 144 -14 475 -12 605 4 94 11 142
23 224 56 57 22 107 39 111 36 4 -2 47 9 96 24 55 18 93 26 99 20 6 -6 16 -1
27 13 9 13 19 21 21 18 6 -7 -10 -254 -22 -355 -6 -44 -13 -192 -17 -330 -3
-137 -8 -252 -10 -254 -2 -3 -14 5 -27 16 -34 32 -112 70 -158 78 -77 13 -125
-9 -212 -98 -68 -70 -80 -88 -100 -151 -18 -59 -22 -94 -22 -206 0 -118 3
-141 22 -182 12 -27 19 -48 16 -48 -10 0 -78 44 -81 52 -2 4 -8 8 -14 8 -8 0
-254 182 -268 199 -19 22 -74 53 -78 43 -6 -18 -20 -15 -27 6 -3 9 -24 37 -46
62 l-41 45 36 -55 c81 -125 117 -169 234 -288 68 -68 121 -126 119 -129 -5 -4
-73 26 -96 42 -7 6 -28 24 -45 41 -17 17 -59 55 -94 83 -100 83 -231 218 -467
481 -32 36 -72 81 -90 100 -18 20 -64 80 -104 133 -40 53 -74 97 -76 97 -3 0
16 -33 40 -74 25 -40 45 -79 45 -85 0 -6 4 -11 8 -11 5 0 9 -6 9 -12 0 -16 69
-205 87 -238 7 -14 32 -68 55 -120 23 -52 72 -158 110 -235 39 -77 67 -142 65
-145 -13 -12 -312 322 -389 433 -118 171 -262 478 -285 607 -6 35 -18 84 -27
108 -30 91 10 202 173 478 130 222 241 346 474 535 221 179 291 228 445 310
261 138 513 216 820 252 76 9 194 6 283 -9z m952 -844 c0 -5 -5 -10 -11 -10
-5 0 -7 5 -4 10 3 6 8 10 11 10 2 0 4 -4 4 -10z m-25 -344 l-7 -146 -44 0
c-23 0 -46 5 -49 11 -7 11 95 293 103 285 2 -3 1 -70 -3 -150z m174 -198 c1
-10 -3 -18 -9 -18 -5 0 -10 17 -9 38 0 30 2 33 9 17 5 -11 9 -28 9 -37z m-227
22 l40 0 -7 -167 c-4 -93 -10 -217 -14 -278 -3 -60 -4 -126 -1 -145 l5 -35 14
33 c10 24 20 32 40 33 23 1 24 2 5 7 -21 7 -21 7 8 81 24 60 85 286 104 388 3
18 8 21 27 14 18 -7 24 -21 35 -77 55 -288 94 -487 106 -530 12 -46 11 -59 -8
-135 l-21 -84 -94 10 c-54 6 -96 15 -98 21 -2 7 -13 10 -23 7 -22 -6 -26 8
-10 37 6 11 16 17 24 14 8 -3 12 3 11 18 -2 14 -8 22 -16 20 -19 -4 -47 -42
-51 -67 -3 -19 -9 -20 -133 -17 -71 2 -146 7 -165 11 l-35 7 3 64 c2 36 7 69
12 73 23 25 353 -3 412 -34 15 -8 18 -6 18 10 0 11 -5 23 -11 27 -8 5 -6 10 5
16 32 18 6 26 -111 34 -181 13 -257 4 -366 -44 -31 -14 -60 -23 -63 -20 -2 3
4 21 15 39 36 62 187 422 231 552 32 96 47 127 57 122 8 -3 33 -5 55 -5z
m-381 -77 c-26 -155 -41 -359 -40 -548 l1 -200 24 53 c20 41 30 52 48 52 19 0
28 -11 45 -49 11 -27 21 -54 21 -60 0 -7 -49 -10 -152 -7 -192 6 -157 1 152
-19 135 -9 324 -25 420 -36 96 -12 185 -22 198 -23 30 -4 44 -19 36 -40 -5
-13 -15 -15 -53 -11 -256 28 -334 36 -446 45 -212 17 -346 30 -410 40 -33 5
-97 12 -143 16 l-83 7 6 56 c3 31 12 102 19 157 l13 102 61 80 c84 110 210
304 252 390 19 39 37 69 39 67 1 -2 -2 -34 -8 -72z m229 64 c0 -7 -8 -35 -18
-62 -11 -28 -38 -102 -61 -165 -23 -63 -49 -131 -58 -150 -23 -51 -61 -172
-67 -216 -8 -50 -37 -137 -43 -130 -6 6 24 408 38 496 5 36 12 88 15 115 10
97 6 91 91 104 42 6 79 14 82 16 9 9 21 5 21 -8z m276 -13 l41 -16 -13 -72
c-18 -102 -49 -229 -79 -316 l-26 -75 5 100 c3 55 8 166 12 248 4 81 10 147
13 147 3 0 24 -7 47 -16z m-1404 -703 c25 -12 61 -36 81 -54 l35 -32 7 -210 6
-210 -41 42 c-37 39 -51 79 -33 97 4 4 6 25 4 46 -1 24 2 40 8 40 6 0 11 5 11
10 0 6 -6 10 -13 10 -7 0 -21 24 -31 53 -11 31 -35 69 -61 95 -35 35 -49 42
-81 42 -63 0 -117 -46 -145 -123 -12 -33 -11 -42 2 -65 25 -44 54 -53 159 -49
52 2 103 7 113 12 14 6 17 2 17 -24 0 -29 -3 -31 -34 -31 -35 0 -196 -53 -233
-77 -31 -20 -36 -46 -19 -87 15 -36 20 -39 130 -63 42 -9 44 -12 75 -86 27
-64 58 -76 124 -49 l47 20 0 -44 c0 -44 -1 -45 -52 -69 -69 -32 -104 -31 -192
5 -59 25 -87 44 -138 98 -95 98 -113 149 -113 317 0 180 15 227 102 316 35 37
79 75 96 83 41 21 110 16 169 -13z m1711 -16 c3 -18 -1 -29 -13 -35 -11 -6
-19 -27 -23 -61 -7 -56 -11 -64 -25 -55 -9 6 17 140 32 164 12 19 23 14 29
-13z m-1761 -108 c26 -19 58 -73 73 -124 5 -19 1 -23 -32 -32 -50 -14 -142
-14 -182 0 -39 14 -47 42 -26 92 26 63 78 102 120 90 11 -3 32 -15 47 -26z
m1858 -27 c12 -6 16 -17 13 -30 -3 -11 -8 -20 -12 -20 -3 0 -16 -3 -28 -6 -20
-6 -23 -3 -23 24 0 25 7 36 28 41 2 1 12 -3 22 -9z m-1065 -20 c133 -20 457
-50 539 -50 54 0 61 -3 91 -36 l33 -35 6 26 c7 26 7 26 84 20 42 -4 82 -8 88
-10 7 -2 14 -54 18 -136 6 -119 23 -234 42 -282 17 -46 47 -2 81 123 3 11 12
6 31 -17 15 -18 48 -46 75 -63 61 -38 60 -47 -2 -225 -75 -215 -149 -361 -250
-494 -103 -135 -236 -226 -348 -237 -44 -5 -94 -19 -141 -40 -79 -36 -114 -41
-209 -30 -48 6 -74 4 -114 -9 -41 -14 -70 -16 -140 -11 -85 6 -183 29 -193 44
-14 24 -4 900 12 1017 6 39 23 159 38 269 l29 199 85 -7 c47 -3 112 -10 145
-16z m665 -81 c0 -5 -4 -9 -10 -9 -5 0 -10 7 -10 16 0 8 5 12 10 9 6 -3 10
-10 10 -16z m250 -61 c0 -24 11 -78 24 -121 26 -84 26 -78 -10 -204 -21 -76
-44 38 -44 222 0 122 2 145 15 145 11 0 15 -11 15 -42z m-1630 -90 c0 -37 6
-47 50 -90 49 -47 50 -49 50 -107 0 -53 -3 -62 -27 -80 -70 -56 -115 -32 -138
72 -7 32 -42 50 -117 61 -32 5 -53 14 -63 29 -28 39 -19 56 43 84 59 27 181
72 195 73 4 0 7 -19 7 -42z m-256 -377 c35 -33 160 -81 210 -81 24 0 65 9 91
20 26 11 50 18 54 15 5 -2 11 -39 14 -82 16 -203 83 -656 113 -758 l14 -49
-43 -46 c-24 -25 -83 -94 -132 -155 -49 -60 -96 -117 -105 -125 -9 -8 -27 -30
-39 -48 -13 -18 -25 -32 -27 -30 -2 2 -5 38 -8 79 -7 131 -22 144 -296 269
-194 88 -459 224 -498 255 -2 2 4 36 12 76 12 57 12 76 3 89 -10 13 -10 13 5
2 15 -12 21 -7 52 42 20 31 40 55 45 54 5 -2 30 39 56 90 42 83 65 107 65 66
0 -27 17 -14 33 26 8 22 21 40 29 40 7 1 25 28 41 62 l27 61 21 -27 c26 -33
35 -33 44 2 3 15 18 53 32 85 24 54 44 70 58 47 10 -17 25 -11 25 9 0 19 16
26 64 30 11 0 29 -8 40 -18z m-788 -570 c16 -5 48 -14 72 -21 28 -9 42 -19 42
-30 0 -37 -13 -80 -25 -80 -6 0 -39 25 -73 56 -62 56 -82 62 -39 13 80 -95
332 -244 652 -385 150 -65 227 -108 248 -136 16 -21 19 -51 22 -224 l5 -199
-45 50 c-89 98 -127 153 -121 173 4 10 30 44 59 75 44 48 49 57 32 57 -43 0
-124 -110 -149 -200 -32 -115 -138 -361 -155 -359 -3 0 -27 27 -54 60 -43 53
-75 79 -240 191 -43 29 -233 180 -442 349 -85 69 -167 154 -189 197 -9 17 -16
49 -16 71 0 32 6 44 33 66 17 14 84 77 147 139 155 151 167 158 236 137z
m2644 -106 c88 -104 90 -112 90 -332 0 -282 -14 -317 -117 -295 -37 8 -46 7
-75 -14 l-32 -24 -41 43 c-30 30 -65 51 -121 72 -77 29 -83 30 -236 27 -133
-2 -169 -6 -244 -28 -85 -24 -189 -69 -219 -94 -19 -16 -17 -19 -43 63 -24 73
-28 131 -12 172 18 48 102 127 172 160 64 31 69 32 167 27 77 -4 106 -1 123
10 51 32 137 59 215 66 122 12 157 -2 265 -106 76 -73 91 -93 115 -155 21 -55
28 -66 31 -48 6 41 -28 109 -83 164 -51 52 -53 56 -54 112 0 32 -3 60 -6 63
-3 3 -5 -21 -5 -52 l0 -58 -37 33 c-21 19 -57 43 -81 53 l-42 19 47 28 c27 15
75 55 108 87 33 33 62 60 65 61 3 0 25 -24 50 -54z m-1230 -206 c0 -6 -4 -7
-10 -4 -5 3 -10 11 -10 16 0 6 5 7 10 4 6 -3 10 -11 10 -16z m115 -25 c27 -8
74 -14 105 -14 l55 0 -52 -45 c-57 -50 -93 -114 -93 -164 0 -45 28 -137 45
-151 27 -22 18 -69 -20 -111 -40 -44 -44 -76 -21 -155 8 -27 27 -101 42 -164
28 -123 77 -274 95 -296 25 -30 25 -11 2 59 -21 65 -51 183 -97 382 -26 113
-24 126 37 180 103 94 265 149 472 159 130 7 175 -1 275 -46 73 -34 96 -61
114 -138 8 -36 31 -117 51 -180 20 -63 40 -131 44 -151 l8 -37 -96 5 c-53 2
-116 0 -141 -5 -43 -9 -41 -10 37 -11 45 -1 116 -8 157 -17 73 -16 77 -19 119
-73 54 -69 67 -93 67 -123 0 -13 19 -69 41 -123 23 -55 59 -165 80 -245 38
-146 98 -310 122 -339 18 -21 32 -60 52 -140 9 -36 29 -93 45 -127 25 -56 26
-63 12 -69 -10 -4 -89 -32 -177 -62 -88 -30 -225 -80 -305 -113 -169 -67 -502
-190 -517 -190 -17 0 -41 65 -118 325 -15 50 -52 149 -82 220 -34 81 -57 151
-60 185 l-5 55 42 -60 c23 -33 64 -87 90 -120 52 -66 106 -157 126 -214 7 -20
13 -29 14 -20 0 31 -53 134 -124 239 -39 58 -81 123 -93 145 -11 22 -35 65
-53 95 -60 106 -97 196 -109 268 -17 96 -20 183 -9 205 5 10 7 21 4 24 -2 3
-12 -12 -21 -33 -12 -28 -15 -55 -11 -96 6 -62 3 -67 -26 -41 -13 11 -18 30
-18 65 0 26 -4 48 -10 48 -5 0 -22 24 -36 53 -30 58 -75 122 -110 152 -20 18
-23 32 -27 125 -4 73 -11 120 -25 155 -12 28 -33 81 -47 119 -39 100 -92 210
-115 236 -11 13 -20 32 -20 43 0 11 -21 39 -46 63 l-47 42 62 76 c34 41 65 77
70 80 4 3 29 -74 54 -171 53 -200 127 -437 134 -430 2 3 0 97 -6 208 -6 112
-12 268 -14 347 -3 127 -2 142 12 136 9 -4 38 -13 66 -20z m-356 -298 c29 -30
34 -44 41 -107 5 -40 6 -87 3 -103 -4 -31 33 -445 41 -453 3 -3 8 17 12 43 6
42 -3 215 -23 422 -4 39 -2 62 4 62 10 0 73 -133 134 -285 31 -78 32 -84 36
-270 4 -127 0 -253 -11 -380 -17 -198 -19 -444 -7 -600 6 -72 8 -45 9 135 1
132 10 314 22 440 11 118 20 248 20 288 0 39 4 72 9 72 12 0 52 -55 94 -130
37 -67 56 -140 77 -305 7 -49 16 -97 21 -105 11 -19 10 71 0 155 -5 33 -6 62
-4 65 9 10 33 -34 33 -60 0 -42 35 -135 77 -201 35 -58 37 -65 34 -133 -2 -66
1 -80 53 -205 31 -74 78 -206 106 -295 28 -89 60 -185 71 -215 11 -30 16 -57
12 -61 -4 -3 -53 -23 -108 -44 -55 -21 -113 -44 -130 -51 -16 -7 -48 -18 -70
-23 -101 -26 -195 -57 -250 -83 -58 -28 -60 -28 -75 -10 -8 11 -43 33 -77 50
-35 17 -63 34 -63 38 0 4 21 34 47 67 79 103 73 101 -25 -12 -40 -46 -47 -50
-56 -35 -5 10 -15 24 -22 31 -11 10 -7 21 17 57 34 50 129 247 129 267 0 7 9
33 20 57 25 55 21 64 -7 13 -11 -20 -42 -77 -69 -127 -27 -49 -63 -116 -79
-147 -17 -32 -33 -58 -37 -58 -4 0 -17 18 -28 40 -18 36 -19 43 -6 68 8 15 31
76 51 137 46 139 52 216 31 455 -8 102 -18 250 -21 330 -14 403 -17 475 -19
477 -6 6 -16 -534 -11 -582 40 -412 39 -540 -1 -648 -9 -23 -25 -68 -36 -99
-11 -32 -23 -58 -27 -58 -4 0 -11 96 -15 213 -3 116 -10 307 -15 422 -6 116
-11 300 -12 410 l-2 200 33 105 c18 58 34 106 35 108 8 9 45 -26 46 -43 0 -11
3 -14 6 -7 7 17 34 15 61 -4 20 -14 23 -14 28 1 7 18 2 25 -18 29 -7 1 -34 14
-60 30 -47 27 -47 28 -42 71 8 52 2 62 -63 114 l-52 41 13 37 c7 21 34 80 60
132 45 91 51 116 23 93 -13 -11 -71 -121 -105 -203 -19 -44 -21 -45 -58 -41
-22 3 -42 9 -45 14 -3 4 -6 42 -7 83 -3 82 7 109 62 180 43 56 140 165 147
165 3 0 20 -15 38 -34z m-394 -264 c28 -37 69 -88 92 -113 l43 -46 -56 -56
c-31 -32 -60 -57 -64 -57 -5 0 -37 29 -73 65 l-66 65 30 87 c16 48 29 95 29
105 0 30 13 20 65 -50z m233 -193 c2 -5 9 -9 15 -9 18 -1 91 -59 98 -78 3 -9
-2 -46 -12 -82 -33 -123 -68 -255 -73 -282 -6 -26 -10 -28 -54 -28 -26 0 -52
4 -58 8 -6 4 -41 69 -78 146 -51 106 -64 144 -59 165 3 14 42 61 85 105 70 69
82 77 106 71 15 -3 29 -11 30 -16z m-10 -505 l30 -6 7 -217 c3 -119 13 -344
21 -500 8 -157 14 -305 14 -329 l0 -45 -28 39 c-15 21 -52 77 -81 123 l-54 84
2 166 c1 91 6 234 11 316 5 83 11 197 12 255 0 58 3 108 5 113 5 9 21 9 61 1z
m2111 -157 c-1 -7 1 -28 5 -48 5 -23 4 -45 -3 -58 -13 -23 -19 -25 -39 -12
-12 7 -11 14 2 39 9 17 16 47 16 67 0 22 4 34 10 30 6 -4 10 -12 9 -18z
m-5862 -553 c-3 -3 -12 -4 -19 -1 -8 3 -5 6 6 6 11 1 17 -2 13 -5z m-97 -8 c0
-2 -7 -7 -16 -10 -8 -3 -12 -2 -9 4 6 10 25 14 25 6z m25 -16 c3 -5 1 -10 -4
-10 -6 0 -11 5 -11 10 0 6 2 10 4 10 3 0 8 -4 11 -10z m-102 -7 c-7 -2 -21 -2
-30 0 -10 3 -4 5 12 5 17 0 24 -2 18 -5z m217 -8 c9 -10 9 -15 1 -15 -6 0 -11
4 -11 9 0 6 -15 12 -32 14 l-33 4 31 1 c18 1 37 -5 44 -13z m-155 -5 c3 -6 -1
-7 -9 -4 -18 7 -21 14 -7 14 6 0 13 -4 16 -10z m-42 -7 c-7 -2 -19 -2 -25 0
-7 3 -2 5 12 5 14 0 19 -2 13 -5z m317 -75 c0 -6 -7 -5 -15 2 -8 7 -15 17 -15
22 0 6 7 5 15 -2 8 -7 15 -17 15 -22z m-35 2 c3 -5 1 -10 -4 -10 -6 0 -11 5
-11 10 0 6 2 10 4 10 3 0 8 -4 11 -10z m70 -40 c3 -5 1 -10 -4 -10 -6 0 -11 5
-11 10 0 6 2 10 4 10 3 0 8 -4 11 -10z m7 -63 c-5 -20 -6 -20 -12 -1 -4 10 -5
25 -2 32 8 22 21 -6 14 -31z m42 -47 l7 -25 -15 25 c-9 14 -15 32 -15 40 0 13
1 13 8 0 5 -8 12 -26 15 -40z m-499 -109 c-3 -6 -11 -11 -17 -11 -6 0 -6 6 2
15 14 17 26 13 15 -4z m538 4 c-3 -9 -8 -14 -10 -11 -3 3 -2 9 2 15 9 16 15
13 8 -4z m32 -36 c4 -11 4 -23 1 -26 -3 -4 -6 1 -6 10 0 10 -4 17 -10 17 -5 0
-10 5 -10 10 0 18 19 10 25 -11z m-540 -17 c-3 -3 -11 0 -18 7 -9 10 -8 11 6
5 10 -3 15 -9 12 -12z m577 -129 c-10 -28 -10 -28 -8 9 0 21 5 33 10 28 4 -4
4 -21 -2 -37z m38 -14 c0 -6 -4 -7 -10 -4 -5 3 -10 11 -10 16 0 6 5 7 10 4 6
-3 10 -11 10 -16z m-480 1 c0 -5 -2 -10 -4 -10 -3 0 -8 5 -11 10 -3 6 -1 10 4
10 6 0 11 -4 11 -10z m490 -58 c0 -8 -1 -13 -3 -11 -1 2 -9 12 -16 22 -12 15
-12 17 3 11 9 -3 16 -13 16 -22z m30 -47 c0 -5 -5 -3 -10 5 -5 8 -10 20 -10
25 0 6 5 3 10 -5 5 -8 10 -19 10 -25z m-35 15 c3 -5 1 -10 -4 -10 -6 0 -11 5
-11 10 0 6 2 10 4 10 3 0 8 -4 11 -10z m73 -102 c0 -7 4 -24 7 -38 6 -23 6
-23 -9 4 -9 15 -13 32 -10 37 7 12 10 11 12 -3z m-404 -34 c3 -8 2 -12 -4 -9
-6 3 -10 10 -10 16 0 14 7 11 14 -7z m396 -27 c0 -5 -4 -5 -10 -2 -5 3 -10 14
-10 23 0 15 2 15 10 2 5 -8 10 -19 10 -23z m-366 -23 c3 -8 2 -12 -4 -9 -6 3
-10 10 -10 16 0 14 7 11 14 -7z m-377 -56 c-3 -8 -6 -5 -6 6 -1 11 2 17 5 13
3 -3 4 -12 1 -19z m37 -63 c5 -50 1 -42 -14 29 -5 21 -5 34 0 30 5 -5 11 -31
14 -59z m-37 -17 c-3 -8 -6 -5 -6 6 -1 11 2 17 5 13 3 -3 4 -12 1 -19z m799
-15 c-11 -11 -17 4 -9 23 7 18 8 18 11 1 2 -10 1 -21 -2 -24z m4 -27 c0 -3 -4
-8 -10 -11 -5 -3 -10 -1 -10 4 0 6 5 11 10 11 6 0 10 -2 10 -4z m-306 -21 c-4
-8 -8 -15 -10 -15 -2 0 -4 7 -4 15 0 8 4 15 10 15 5 0 7 -7 4 -15z m299 -47
c-10 -21 -10 -21 -9 9 1 19 5 28 10 23 6 -6 5 -18 -1 -32z m-701 -83 c-7 -11
-20 29 -20 60 0 12 5 6 12 -15 8 -19 11 -39 8 -45z m715 -27 c-3 -8 -6 -5 -6
6 -1 11 2 17 5 13 3 -3 4 -12 1 -19z m-197 -2 c0 -3 -4 -8 -10 -11 -5 -3 -10
-1 -10 4 0 6 5 11 10 11 6 0 10 -2 10 -4z m-492 -31 c-3 -3 -9 2 -12 12 -6 14
-5 15 5 6 7 -7 10 -15 7 -18z m695 -57 l-10 -33 1 42 c0 26 4 39 10 33 6 -6 5
-22 -1 -42z m-673 -26 c0 -3 -7 3 -15 14 -8 10 -14 28 -14 39 0 14 4 10 14
-14 8 -18 15 -36 15 -39z m507 -54 c-3 -8 -6 -5 -6 6 -1 11 2 17 5 13 3 -3 4
-12 1 -19z m43 2 c0 -5 -4 -10 -10 -10 -5 0 -10 5 -10 10 0 6 5 10 10 10 6 0
10 -4 10 -10z m103 -41 c-6 -6 -7 3 -4 23 4 28 6 29 9 9 2 -13 0 -27 -5 -32z
m44 19 c-3 -7 -5 -2 -5 12 0 14 2 19 5 13 2 -7 2 -19 0 -25z m-669 -53 c-3 -3
-9 2 -12 12 -6 14 -5 15 5 6 7 -7 10 -15 7 -18z m639 3 c-3 -8 -6 -5 -6 6 -1
11 2 17 5 13 3 -3 4 -12 1 -19z m-649 -74 c-3 -14 -5 -12 -10 9 -3 19 -2 25 4
19 6 -6 8 -18 6 -28z m29 -16 c-3 -8 -6 -5 -6 6 -1 11 2 17 5 13 3 -3 4 -12 1
-19z m19 -66 c1 -42 1 -44 -7 -17 -7 24 -4 65 4 65 1 0 3 -21 3 -48z m-27 -29
c0 -25 -1 -26 -9 -8 -12 27 -12 35 0 35 6 0 10 -12 9 -27z m591 2 c0 -8 -2
-15 -4 -15 -2 0 -6 7 -10 15 -3 8 -1 15 4 15 6 0 10 -7 10 -15z m-521 -125 c0
-9 -4 -8 -9 5 -5 11 -9 27 -9 35 0 9 4 8 9 -5 5 -11 9 -27 9 -35z m638 -67
c-3 -10 -5 -2 -5 17 0 19 2 27 5 18 2 -10 2 -26 0 -35z m-17 11 c0 -14 -4 -23
-9 -20 -5 3 -7 15 -4 26 7 28 13 25 13 -6z m27 -56 c-3 -8 -6 -5 -6 6 -1 11 2
17 5 13 3 -3 4 -12 1 -19z m-638 -43 c0 -5 -4 -3 -9 5 -5 8 -9 22 -9 30 0 16
17 -16 18 -35z m18 -27 c-2 -13 -4 -5 -4 17 -1 22 1 32 4 23 2 -10 2 -28 0
-40z m613 12 c0 -5 -5 -10 -11 -10 -5 0 -7 5 -4 10 3 6 8 10 11 10 2 0 4 -4 4
-10z m-653 -42 c-3 -8 -6 -5 -6 6 -1 11 2 17 5 13 3 -3 4 -12 1 -19z m80 -115
c-3 -10 -5 -4 -5 12 0 17 2 24 5 18 2 -7 2 -21 0 -30z m10 -90 c-3 -10 -5 -4
-5 12 0 17 2 24 5 18 2 -7 2 -21 0 -30z m10 -86 c-14 -43 -27 -50 -19 -10 4
23 23 55 29 49 1 0 -4 -18 -10 -39z m19 -34 c-10 -10 -19 5 -10 18 6 11 8 11
12 0 2 -7 1 -15 -2 -18z m-9 -70 c-3 -10 -5 -2 -5 17 0 19 2 27 5 18 2 -10 2
-26 0 -35z m-20 -5 c-3 -7 -5 -2 -5 12 0 14 2 19 5 13 2 -7 2 -19 0 -25z m60
-110 c-3 -7 -5 -2 -5 12 0 14 2 19 5 13 2 -7 2 -19 0 -25z m-350 -40 c-2 -13
-4 -5 -4 17 -1 22 1 32 4 23 2 -10 2 -28 0 -40z m354 -11 c-10 -9 -11 -8 -5 6
3 10 9 15 12 12 3 -3 0 -11 -7 -18z m16 -49 c-3 -8 -6 -5 -6 6 -1 11 2 17 5
13 3 -3 4 -12 1 -19z m0 -150 c-2 -13 -4 -5 -4 17 -1 22 1 32 4 23 2 -10 2
-28 0 -40z m24 -80 c-4 -35 -6 -38 -9 -15 -3 26 3 57 10 57 2 0 1 -19 -1 -42z
m-384 -190 c-2 -13 -4 -5 -4 17 -1 22 1 32 4 23 2 -10 2 -28 0 -40z"/>
<path d="M4228 8443 c28 -2 76 -2 105 0 28 2 5 3 -53 3 -58 0 -81 -1 -52 -3z"/>
<path d="M4070 8430 c-10 -7 1 -8 35 -4 28 4 52 8 54 10 10 9 -75 3 -89 -6z"/>
<path d="M4008 8413 c7 -3 16 -2 19 1 4 3 -2 6 -13 5 -11 0 -14 -3 -6 -6z"/>
<path d="M3540 8340 c-76 -22 -231 -78 -322 -116 -107 -44 -198 -87 -195 -91
2 -1 46 16 98 38 52 23 110 47 129 54 181 67 248 90 325 110 50 13 77 23 60
24 -16 0 -59 -9 -95 -19z"/>
<path d="M2970 8115 c-14 -8 -20 -14 -15 -14 6 0 21 6 35 14 14 8 21 14 15 14
-5 0 -21 -6 -35 -14z"/>
<path d="M3290 7659 c-167 -17 -304 -37 -268 -38 35 -1 383 35 418 43 28 7
-64 3 -150 -5z"/>
<path d="M2536 7619 c16 -4 121 -6 234 -6 113 0 192 2 175 3 -61 7 -438 9
-409 3z"/>
<path d="M2456 7606 c8 -20 184 -106 184 -90 0 3 -30 18 -66 34 -36 17 -79 39
-95 51 -22 15 -27 17 -23 5z"/>
<path d="M2371 7359 c-1 -21 40 -121 47 -114 5 4 -1 22 -36 105 -7 15 -11 19
-11 9z"/>
<path d="M5525 7040 c-11 -19 -18 -116 -7 -105 8 8 22 115 15 115 -1 0 -5 -4
-8 -10z"/>
<path d="M5450 6876 c0 -2 18 -6 39 -8 22 -2 37 0 35 4 -5 8 -74 11 -74 4z"/>
<path d="M5268 6863 c6 -2 18 -2 25 0 6 3 1 5 -13 5 -14 0 -19 -2 -12 -5z"/>
<path d="M5470 6599 c0 -5 5 -7 10 -4 6 3 10 8 10 11 0 2 -4 4 -10 4 -5 0 -10
-5 -10 -11z"/>
<path d="M4608 6613 c6 -2 18 -2 25 0 6 3 1 5 -13 5 -14 0 -19 -2 -12 -5z"/>
<path d="M4688 6603 c12 -2 32 -2 45 0 12 2 2 4 -23 4 -25 0 -35 -2 -22 -4z"/>
<path d="M5360 6240 c63 -22 96 -25 105 -9 10 16 7 16 -80 22 l-80 6 55 -19z"/>
<path d="M5426 5331 c-3 -5 9 -11 27 -13 17 -3 40 -8 50 -13 10 -4 17 -3 17 3
0 10 -52 32 -76 32 -7 0 -15 -4 -18 -9z"/>
<path d="M5571 5154 c0 -11 3 -14 6 -6 3 7 2 16 -1 19 -3 4 -6 -2 -5 -13z"/>
<path d="M5651 5045 c-17 -20 -31 -39 -31 -43 0 -3 10 5 22 18 13 14 31 33 42
43 10 9 14 17 8 17 -5 0 -24 -16 -41 -35z"/>
<path d="M5036 4061 c-6 -9 -88 -31 -130 -36 -12 -1 -24 -3 -28 -4 -12 -2 -88
-72 -88 -82 0 -4 15 6 33 22 17 16 41 32 52 34 180 37 203 44 191 64 -9 13
-23 14 -30 2z"/>
<path d="M4690 3926 c0 -8 4 -17 9 -20 5 -4 7 3 4 14 -6 23 -13 26 -13 6z"/>
<path d="M4530 3444 c0 -145 -25 -420 -46 -499 -4 -16 -3 -17 5 -5 20 32 52
301 52 447 0 80 -3 148 -6 151 -3 3 -5 -39 -5 -94z"/>
<path d="M4463 2905 c-3 -9 -3 -18 -1 -21 3 -3 8 4 11 16 6 23 -1 27 -10 5z"/>
<path d="M2180 8725 c0 -5 5 -17 10 -25 5 -8 10 -10 10 -5 0 6 -5 17 -10 25
-5 8 -10 11 -10 5z"/>
<path d="M37 8673 c24 -2 62 -2 85 0 24 2 5 4 -42 4 -47 0 -66 -2 -43 -4z"/>
<path d="M348 8663 c23 -2 61 -2 85 0 23 2 4 4 -43 4 -47 0 -66 -2 -42 -4z"/>
<path d="M1173 8633 c15 -2 37 -2 50 0 12 2 0 4 -28 4 -27 0 -38 -2 -22 -4z"/>
<path d="M8189 7983 c-13 -16 -12 -17 4 -4 16 13 21 21 13 21 -2 0 -10 -8 -17
-17z"/>
<path d="M20 7276 c0 -2 8 -10 18 -17 15 -13 16 -12 3 4 -13 16 -21 21 -21 13z"/>
<path d="M50 7236 c0 -2 8 -10 18 -17 15 -13 16 -12 3 4 -13 16 -21 21 -21 13z"/>
<path d="M1970 6857 c0 -22 -32 -164 -76 -342 -86 -343 -115 -516 -149 -883
-16 -175 -19 -272 -7 -272 25 0 138 309 172 475 30 143 39 235 45 486 7 248 9
311 21 452 4 48 4 87 0 87 -3 0 -6 -1 -6 -3z m-22 -339 c-25 -491 -33 -559
-89 -756 -27 -93 -85 -262 -93 -270 -2 -2 -2 16 0 40 36 399 53 524 119 854
40 198 59 274 67 274 2 0 0 -64 -4 -142z"/>
<path d="M2140 6245 c0 -30 -4 -55 -9 -55 -5 0 -11 -17 -15 -37 -3 -21 -12
-50 -20 -65 -8 -14 -24 -68 -36 -120 -116 -500 -126 -533 -245 -853 -20 -55
-61 -174 -92 -265 -45 -137 -92 -264 -120 -327 -3 -7 0 -13 6 -13 6 0 25 28
42 63 17 34 69 112 114 172 87 116 122 174 135 228 5 17 27 79 49 137 83 220
147 483 177 725 16 133 31 465 21 465 -4 0 -7 -25 -7 -55z"/>
<path d="M5947 5469 c7 -7 15 -10 18 -7 3 3 -2 9 -12 12 -14 6 -15 5 -6 -5z"/>
<path d="M8830 5453 c-332 -65 -416 -90 -438 -135 -7 -15 -55 -63 -107 -107
-127 -109 -145 -134 -155 -218 -5 -37 -6 -80 -3 -95 7 -35 4 -36 -130 -41
l-108 -4 -50 -49 c-28 -27 -63 -76 -79 -109 -67 -141 -63 -119 -62 -380 2
-322 12 -463 62 -895 l7 -65 2 75 c0 41 -3 134 -8 205 -5 72 -12 218 -16 325
-3 107 -8 231 -10 275 -2 44 -7 138 -11 209 -5 93 -3 127 5 122 6 -4 11 -1 11
6 0 7 13 29 29 48 15 19 37 53 49 75 11 22 36 55 56 74 35 34 37 34 141 39
l105 5 1 -89 c1 -100 4 -170 19 -399 5 -88 14 -239 20 -335 17 -290 55 -666
69 -682 9 -10 3 275 -9 462 -13 196 -26 471 -40 815 -6 149 -16 303 -22 342
l-11 73 42 55 c23 30 45 55 50 55 12 0 21 -115 21 -270 0 -74 4 -173 10 -220
11 -101 45 -649 60 -980 6 -129 13 -239 16 -245 10 -26 -20 805 -36 970 -20
210 -39 495 -42 626 l-3 136 64 54 c35 30 72 60 81 67 21 15 286 41 418 42 82
0 82 0 82 26 l0 27 -147 -6 c-82 -4 -177 -9 -213 -13 -43 -4 -62 -3 -55 3 12
12 191 56 323 79 86 15 92 18 92 40 0 13 -1 23 -2 23 -2 -1 -37 -8 -78 -16z"/>
<path d="M8436 4990 c7 -328 22 -769 33 -985 12 -232 21 -525 21 -674 0 -57 3
-101 7 -97 10 10 5 540 -6 726 -6 85 -13 234 -16 330 -9 281 -35 863 -40 885
-2 11 -2 -72 1 -185z"/>
<path d="M6287 5129 c4 -13 8 -18 11 -10 2 7 -1 18 -6 23 -8 8 -9 4 -5 -13z"/>
<path d="M6200 4995 c0 -5 5 -17 10 -25 5 -8 10 -10 10 -5 0 6 -5 17 -10 25
-5 8 -10 11 -10 5z"/>
<path d="M6331 4965 c1 -19 18 -51 18 -35 0 8 -4 22 -9 30 -5 8 -9 11 -9 5z"/>
<path d="M5889 4848 c-3 -22 -1 -34 4 -29 5 5 7 21 5 37 -3 27 -4 26 -9 -8z"/>
<path d="M6222 4850 c0 -14 2 -19 5 -12 2 6 2 18 0 25 -3 6 -5 1 -5 -13z"/>
<path d="M6131 4784 c0 -11 3 -14 6 -6 3 7 2 16 -1 19 -3 4 -6 -2 -5 -13z"/>
<path d="M6223 4700 c0 -30 2 -43 4 -27 2 15 2 39 0 55 -2 15 -4 2 -4 -28z"/>
<path d="M6440 4726 c0 -2 7 -9 15 -16 13 -11 14 -10 9 4 -5 14 -24 23 -24 12z"/>
<path d="M5803 4620 c-12 -28 -19 -50 -17 -50 7 0 46 91 42 96 -2 2 -14 -19
-25 -46z"/>
<path d="M7923 4605 c0 -27 2 -38 4 -22 2 15 2 37 0 50 -2 12 -4 0 -4 -28z"/>
<path d="M6161 4624 c0 -11 3 -14 6 -6 3 7 2 16 -1 19 -3 4 -6 -2 -5 -13z"/>
<path d="M5912 4545 c-7 -14 -12 -38 -11 -53 0 -19 4 -13 14 23 15 56 14 67
-3 30z"/>
<path d="M6173 4520 c0 -30 2 -43 4 -27 2 15 2 39 0 55 -2 15 -4 2 -4 -28z"/>
<path d="M7931 4439 c1 -63 4 -152 9 -199 5 -54 6 -14 2 110 -2 107 -6 197 -8
199 -2 2 -4 -47 -3 -110z"/>
<path d="M5752 4520 c-18 -29 -15 -38 4 -12 9 13 14 25 12 27 -2 2 -9 -5 -16
-15z"/>
<path d="M2810 4506 c-29 -17 -259 -265 -325 -351 -25 -33 -63 -83 -84 -111
-84 -109 -205 -346 -312 -609 -45 -112 -53 -141 -55 -205 -3 -70 -2 -72 6 -25
12 71 19 89 109 294 85 193 166 352 237 462 62 98 236 310 349 426 l100 103
60 0 c44 1 56 3 43 10 -30 18 -101 21 -128 6z"/>
<path d="M3040 4410 c0 -5 8 -13 17 -18 9 -6 43 -36 75 -68 41 -41 58 -53 58
-40 0 22 -112 136 -134 136 -9 0 -16 -4 -16 -10z"/>
<path d="M6102 4290 c0 -14 2 -19 5 -12 2 6 2 18 0 25 -3 6 -5 1 -5 -13z"/>
<path d="M6100 4160 c0 -3 11 -27 25 -54 14 -27 25 -43 25 -35 0 13 -49 101
-50 89z"/>
<path d="M7953 4105 c0 -27 2 -38 4 -22 2 15 2 37 0 50 -2 12 -4 0 -4 -28z"/>
<path d="M7823 4085 c0 -33 2 -45 4 -27 2 18 2 45 0 60 -2 15 -4 0 -4 -33z"/>
<path d="M6132 4015 c-17 -37 -14 -45 4 -12 9 16 14 31 11 33 -2 2 -9 -7 -15
-21z"/>
<path d="M6282 4010 c-17 -28 -15 -39 4 -12 30 44 104 16 104 -39 0 -12 6 -16
19 -12 57 15 131 -68 131 -147 0 -36 -6 -48 -39 -81 -21 -22 -44 -39 -50 -39
-5 0 -17 12 -25 28 -8 15 -15 22 -16 16 0 -7 8 -22 18 -34 17 -22 19 -22 49
-6 63 32 91 97 73 165 -15 57 -52 96 -106 111 -24 7 -44 16 -44 19 0 4 -9 17
-20 29 -27 29 -80 30 -98 2z"/>
<path d="M6083 3902 c-17 -37 -30 -69 -27 -71 2 -2 18 26 35 63 17 37 30 69
27 71 -2 2 -18 -26 -35 -63z"/>
<path d="M6255 3959 c-4 -6 -5 -12 -2 -15 2 -3 7 2 10 11 7 17 1 20 -8 4z"/>
<path d="M6555 3930 c11 -13 28 -33 38 -44 9 -11 17 -30 17 -44 0 -36 49 -131
76 -149 23 -15 26 -14 49 7 13 12 21 28 18 36 -6 17 18 19 35 2 9 -9 12 -4 12
26 0 20 -4 35 -9 32 -18 -11 -71 29 -82 61 -6 18 -14 35 -19 38 -5 3 -3 -10 5
-28 8 -19 11 -37 8 -41 -13 -13 -39 -5 -53 15 -19 27 -49 58 -86 89 l-29 25
20 -25z m168 -163 c10 -41 3 -72 -13 -62 -14 9 -60 82 -60 95 0 5 14 9 32 7
28 -2 33 -7 41 -40z m33 6 c-7 -7 -26 7 -26 19 0 6 6 6 15 -2 9 -7 13 -15 11
-17z"/>
<path d="M7962 3920 c0 -19 2 -27 5 -17 2 9 2 25 0 35 -3 9 -5 1 -5 -18z"/>
<path d="M6230 3909 c-7 -11 -10 -23 -7 -25 2 -2 9 7 15 21 14 30 7 33 -8 4z"/>
<path d="M6350 3840 c0 -33 15 -41 22 -12 3 10 -1 23 -9 30 -11 11 -13 7 -13
-18z"/>
<path d="M6766 3857 c3 -10 9 -15 12 -12 3 3 0 11 -7 18 -10 9 -11 8 -5 -6z"/>
<path d="M6023 3798 c-22 -26 -37 -48 -30 -48 3 0 17 16 31 35 30 39 30 46 -1
13z"/>
<path d="M6156 3785 c4 -8 8 -15 10 -15 2 0 4 7 4 15 0 8 -4 15 -10 15 -5 0
-7 -7 -4 -15z"/>
<path d="M6381 3795 c0 -5 6 -21 14 -35 8 -14 14 -20 14 -15 0 6 -6 21 -14 35
-8 14 -14 21 -14 15z"/>
<path d="M7973 3745 c0 -22 2 -30 4 -17 2 12 2 30 0 40 -3 9 -5 -1 -4 -23z"/>
<path d="M7832 3740 c0 -19 2 -27 5 -17 2 9 2 25 0 35 -3 9 -5 1 -5 -18z"/>
<path d="M7834 3550 c0 -63 1 -89 3 -57 2 31 2 83 0 115 -2 31 -3 5 -3 -58z"/>
<path d="M7982 3620 c0 -19 2 -27 5 -17 2 9 2 25 0 35 -3 9 -5 1 -5 -18z"/>
<path d="M6800 3584 c0 -9 51 -206 66 -253 7 -22 5 -23 -34 -18 -60 9 -95 18
-111 31 -11 8 -13 8 -8 0 5 -8 -13 -13 -56 -17 -34 -3 -95 -12 -135 -21 -40
-9 -94 -17 -120 -18 -46 -2 -89 -20 -105 -45 -4 -7 -15 -13 -24 -13 -9 0 -13
-3 -10 -6 4 -4 -2 -19 -13 -34 -24 -33 -26 -52 -5 -44 8 4 15 11 15 18 0 6 17
31 38 55 37 42 37 42 157 62 251 41 250 41 296 28 24 -6 62 -12 84 -13 38 -1
40 0 39 29 -3 48 -75 303 -74 259z"/>
<path d="M7991 3414 c0 -11 3 -14 6 -6 3 7 2 16 -1 19 -3 4 -6 -2 -5 -13z"/>
<path d="M8352 3335 c0 -16 2 -22 5 -12 2 9 2 23 0 30 -3 6 -5 -1 -5 -18z"/>
<path d="M7773 3295 c0 -27 2 -38 4 -22 2 15 2 37 0 50 -2 12 -4 0 -4 -28z"/>
<path d="M6896 3246 c-4 -21 -18 -63 -32 -94 -23 -53 -25 -70 -6 -58 13 8 54
152 50 173 -2 10 -7 1 -12 -21z"/>
<path d="M8232 3250 c0 -14 2 -19 5 -12 2 6 2 18 0 25 -3 6 -5 1 -5 -13z"/>
<path d="M6195 3250 c-19 -8 -19 -9 3 -9 12 -1 22 4 22 9 0 6 -1 10 -2 9 -2 0
-12 -4 -23 -9z"/>
<path d="M8503 3145 c0 -22 2 -30 4 -17 2 12 2 30 0 40 -3 9 -5 -1 -4 -23z"/>
<path d="M7285 3151 c-28 -7 -173 -62 -256 -97 -35 -15 -37 -15 -62 10 -31 31
-36 31 -113 7 -32 -11 -117 -38 -189 -61 -71 -22 -159 -57 -195 -76 -36 -19
-56 -32 -45 -29 11 4 97 31 190 61 306 99 305 99 323 88 29 -18 69 -104 117
-249 56 -172 108 -416 91 -428 -8 -6 -8 -10 2 -14 7 -3 12 -24 12 -53 0 -33 5
-50 15 -54 50 -19 -22 -73 -167 -125 -57 -21 -126 -50 -155 -64 -28 -15 -81
-38 -117 -51 l-65 -25 -25 29 c-13 16 -26 35 -29 42 -2 7 -7 10 -11 6 -7 -6
31 -87 47 -99 4 -3 -7 -18 -24 -35 -17 -16 -42 -46 -56 -67 -30 -48 -129 -112
-192 -126 -27 -6 -77 -27 -112 -48 -59 -34 -238 -117 -319 -148 -19 -7 -96
-42 -170 -78 -74 -36 -194 -88 -266 -115 -128 -49 -321 -112 -342 -112 -5 0
-63 -25 -128 -56 -143 -67 -123 -58 -314 -138 -206 -86 -287 -109 -380 -110
-74 -1 -76 0 -226 77 -84 42 -196 110 -250 150 -55 40 -144 105 -199 144 -55
40 -129 99 -165 132 -36 34 -131 112 -211 175 -80 63 -177 143 -216 178 -85
78 -180 160 -219 190 -16 12 -31 25 -34 28 -3 4 -30 27 -60 51 -116 94 -220
181 -220 185 0 2 24 -6 53 -17 65 -27 178 -62 182 -57 2 2 -56 25 -128 52 -73
27 -148 57 -167 66 -19 10 -55 26 -80 36 -24 11 -70 38 -102 61 -47 35 -65 57
-97 120 -49 95 -53 88 -8 -11 40 -85 85 -126 203 -184 55 -28 106 -64 164
-118 47 -44 126 -113 175 -154 50 -41 124 -104 166 -140 230 -199 284 -244
387 -324 65 -50 112 -94 112 -104 0 -9 -12 -44 -26 -77 -14 -33 -51 -125 -84
-205 -32 -80 -73 -179 -90 -220 -35 -81 -42 -143 -23 -220 10 -40 11 -41 12
-14 1 17 -4 46 -10 63 -14 39 -3 82 43 180 30 63 121 285 175 424 l26 68 30
-30 30 -29 -62 -149 c-35 -81 -82 -184 -105 -229 -39 -73 -43 -89 -50 -178
l-7 -98 36 -39 c35 -39 43 -63 26 -74 -36 -22 -16 -235 25 -270 26 -22 144
-172 176 -223 13 -21 28 -32 43 -32 12 0 80 -27 150 -61 89 -41 138 -59 159
-57 l31 3 -35 17 c-19 9 -62 28 -95 43 -67 30 -182 83 -205 94 -8 4 -43 43
-77 87 -35 43 -80 98 -100 122 -21 23 -41 57 -46 75 -14 57 -9 165 7 189 23
33 20 50 -19 95 -33 39 -35 45 -35 117 0 70 3 82 49 173 27 54 73 159 102 233
29 74 55 137 56 139 2 3 18 -9 36 -26 17 -16 63 -51 100 -77 128 -88 172 -120
193 -138 21 -18 21 -25 19 -266 -3 -301 10 -692 25 -738 7 -19 25 -41 44 -53
18 -12 50 -37 70 -56 24 -23 47 -35 64 -34 26 0 26 1 7 12 -11 7 -36 28 -55
48 -19 20 -49 43 -66 52 -19 10 -34 27 -39 44 -4 15 -9 236 -12 490 l-5 463
88 -55 c48 -31 98 -58 111 -61 21 -6 23 -12 23 -68 0 -33 -7 -124 -15 -201
-27 -254 -16 -480 25 -533 13 -16 20 -40 20 -68 0 -41 3 -46 54 -84 34 -25 63
-40 76 -38 17 2 11 11 -39 48 -56 43 -59 47 -58 88 0 29 -6 49 -20 65 -42 47
-55 260 -28 482 8 66 15 152 15 192 0 39 4 75 10 78 5 3 29 -4 52 -16 54 -28
174 -37 250 -19 55 13 257 89 308 115 16 8 37 16 47 18 10 2 58 22 107 45 49
23 91 40 93 38 3 -2 20 6 39 19 35 24 114 51 166 57 l27 3 5 -545 c5 -582 9
-670 34 -670 12 0 14 10 9 53 -4 28 -9 266 -12 527 -3 261 -8 510 -10 553 l-5
77 82 0 c46 0 120 -3 165 -6 78 -7 81 -8 74 -28 -5 -12 -12 -86 -16 -166 -8
-165 -8 -841 1 -875 5 -19 16 -24 73 -34 38 -6 135 -29 217 -52 117 -31 172
-41 254 -45 104 -4 104 -4 55 10 -27 8 -70 17 -95 21 -25 4 -127 29 -227 56
-101 27 -196 49 -212 49 l-30 0 -3 258 c-2 141 1 347 6 457 5 110 9 231 9 269
l1 69 215 -8 c119 -4 241 -7 271 -5 30 1 115 -4 188 -11 l132 -13 0 -200 c1
-351 8 -707 15 -833 7 -107 10 -123 25 -123 15 0 17 9 12 73 -2 39 -6 299 -9
577 l-4 505 50 -3 51 -4 0 -574 0 -574 26 0 26 0 -4 575 -3 576 70 -7 c74 -7
112 -10 209 -12 l59 -2 -7 -432 c-3 -238 -9 -493 -13 -565 -5 -119 -4 -133 11
-133 9 0 16 8 16 20 0 27 19 25 30 -2 7 -19 8 -16 7 17 -1 28 -6 40 -17 40 -8
0 -15 8 -14 18 0 9 2 36 4 60 2 41 3 41 11 12 7 -25 7 -22 4 15 -6 56 -7 268
-6 648 l1 292 54 0 54 0 -2 -502 c-1 -490 4 -618 26 -618 7 0 8 40 3 128 -10
147 -8 959 2 974 3 7 34 9 82 5 74 -6 943 7 1191 18 69 3 214 8 323 11 l197 6
0 26 0 25 -87 -7 c-120 -9 -666 -26 -1138 -34 -285 -6 -400 -4 -427 4 -21 6
-35 8 -32 3 3 -5 -15 -9 -40 -9 -25 0 -46 3 -46 6 0 3 9 17 20 31 29 37 18 39
-18 3 -36 -36 -15 -35 -358 -10 -333 24 -372 26 -669 39 -523 23 -604 25 -700
24 -80 -1 -94 1 -70 9 142 49 321 120 425 170 69 33 186 87 260 120 74 33 182
84 240 113 58 30 123 59 145 64 22 6 177 13 345 16 168 2 351 8 408 11 105 7
125 0 77 -26 -25 -13 -76 -91 -74 -114 0 -6 3 -4 7 4 24 52 68 100 105 115 47
19 30 19 727 34 250 6 467 12 483 14 15 2 115 4 222 5 l195 2 0 35 0 35 -46
-7 c-44 -6 -46 -5 -39 16 5 17 1 23 -22 32 -29 10 -38 21 -120 144 -58 87 -67
94 -124 95 -27 0 -69 10 -100 24 -33 15 -108 33 -194 47 -77 12 -152 24 -167
26 -39 7 -35 -13 5 -25 47 -15 71 -19 192 -37 60 -9 124 -23 143 -31 19 -8 69
-45 111 -82 85 -77 194 -162 231 -182 24 -13 24 -13 4 -21 -12 -4 -90 -9 -175
-12 -173 -4 -191 0 -279 73 -83 69 -157 100 -267 111 -54 5 -105 12 -113 15
-8 3 -54 12 -101 20 -160 26 -449 150 -550 237 -36 32 -71 57 -76 57 -26 0
-43 30 -53 95 -17 107 -75 327 -120 454 -22 63 -40 116 -40 118 0 2 6 3 14 3
8 0 72 22 143 48 70 27 144 52 163 55 92 18 250 -54 765 -345 72 -40 141 -78
155 -85 28 -13 257 -41 391 -48 111 -6 171 -19 225 -51 41 -24 44 -24 44 -7 0
26 -92 70 -172 82 -35 5 -137 12 -228 16 -182 8 -210 15 -366 103 -78 44 -263
146 -369 204 -270 148 -384 184 -490 159z m157 -985 c51 -23 110 -49 131 -55
41 -14 45 -22 21 -42 -19 -15 -49 -73 -58 -112 -4 -15 0 -54 9 -88 9 -34 15
-63 13 -65 -2 -2 -62 -4 -133 -4 -72 -1 -182 -6 -245 -10 -174 -14 -640 -20
-640 -9 0 5 7 12 15 15 8 3 25 22 37 42 45 76 108 127 228 184 63 30 152 67
197 82 45 15 110 45 144 67 67 44 64 36 43 133 -6 27 -3 25 69 -33 44 -36 114
-79 169 -105z m1143 -62 c19 -8 107 -125 100 -133 -3 -3 -27 16 -53 41 -26 25
-57 54 -69 64 -13 10 -23 22 -23 26 0 10 22 10 45 2z m-896 -39 c16 -8 82 -24
146 -35 65 -12 128 -25 140 -30 13 -5 25 -7 27 -4 12 11 154 -19 201 -42 57
-29 177 -115 177 -126 0 -5 -132 -8 -292 -8 -161 0 -336 -5 -388 -10 -106 -10
-100 -13 -126 63 -21 62 -13 103 32 161 39 51 43 52 83 31z m-1082 -1752 c-3
-10 -5 -4 -5 12 0 17 2 24 5 18 2 -7 2 -21 0 -30z m0 -110 c-3 -10 -5 -4 -5
12 0 17 2 24 5 18 2 -7 2 -21 0 -30z"/>
<path d="M6336 2757 c3 -10 9 -15 12 -12 3 3 0 11 -7 18 -10 9 -11 8 -5 -6z"/>
<path d="M8455 2580 c-52 -4 -15 -7 140 -13 185 -7 249 -14 301 -34 8 -3 14 1
14 10 0 9 -17 19 -42 25 -50 13 -312 20 -413 12z"/>
<path d="M8206 2407 c6 -17 141 -35 320 -43 188 -8 208 -16 269 -109 38 -59
115 -135 115 -115 0 8 -13 28 -29 45 -17 16 -49 59 -73 94 -61 91 -85 101
-261 112 -78 5 -176 13 -217 18 -105 14 -130 14 -124 -2z"/>
<path d="M6470 2398 c0 -14 61 -193 90 -265 12 -28 30 -30 30 -3 0 40 -118
307 -120 268z"/>
<path d="M7163 1435 c0 -27 2 -38 4 -22 2 15 2 37 0 50 -2 12 -4 0 -4 -28z"/>
<path d="M5352 943 c4 -137 14 -388 23 -559 8 -171 15 -327 15 -347 0 -21 5
-37 12 -37 8 0 9 34 5 128 -3 70 -13 327 -22 572 -17 449 -19 490 -33 490 -4
0 -4 -111 0 -247z"/>
<path d="M5499 888 c-1 -167 -2 -422 -3 -568 0 -146 1 -277 3 -292 12 -94 16
39 17 567 0 327 -3 595 -8 595 -4 0 -8 -136 -9 -302z"/>
<path d="M4925 876 c3 -110 6 -321 7 -470 1 -254 2 -261 9 -121 8 188 1 696
-11 750 -6 27 -8 -26 -5 -159z"/>
<path d="M3604 994 c-18 -14 -18 -15 4 -4 12 6 22 13 22 15 0 8 -5 6 -26 -11z"/>
<path d="M4839 998 c-5 -17 -4 -50 3 -54 4 -3 8 9 8 25 0 17 -2 31 -5 31 -3 0
-5 -1 -6 -2z"/>
<path d="M3490 944 c-33 -13 -33 -14 -5 -8 17 3 34 10 40 15 11 11 8 11 -35
-7z"/>
<path d="M3781 884 c0 -11 3 -14 6 -6 3 7 2 16 -1 19 -3 4 -6 -2 -5 -13z"/>
<path d="M4843 790 c0 -47 2 -66 4 -42 2 23 2 61 0 85 -2 23 -4 4 -4 -43z"/>
<path d="M3750 800 c0 -5 7 -10 16 -10 8 0 12 5 9 10 -3 6 -10 10 -16 10 -5 0
-9 -4 -9 -10z"/>
<path d="M3588 783 c6 -2 18 -2 25 0 6 3 1 5 -13 5 -14 0 -19 -2 -12 -5z"/>
<path d="M3734 719 c-3 -5 -13 -9 -22 -9 -9 0 -45 -13 -80 -30 -34 -16 -90
-34 -125 -41 -88 -16 -113 -28 -62 -28 57 -1 116 15 188 49 35 16 78 33 95 36
28 6 32 4 32 -15 0 -28 30 -101 41 -101 5 0 2 11 -7 24 -8 14 -16 45 -17 70
-2 33 -6 46 -19 50 -10 2 -21 0 -24 -5z"/>
<path d="M3732 650 c0 -19 2 -27 5 -17 2 9 2 25 0 35 -3 9 -5 1 -5 -18z"/>
<path d="M4854 580 c0 -52 1 -74 3 -47 2 26 2 68 0 95 -2 26 -3 4 -3 -48z"/>
<path d="M1194 652 c8 -13 66 -56 66 -49 0 3 -17 17 -37 33 -20 15 -33 23 -29
16z"/>
<path d="M3070 643 c-30 -1 -136 -10 -235 -19 -99 -8 -245 -19 -325 -24 l-145
-9 180 5 c99 2 248 10 330 18 83 8 190 17 239 21 l88 7 -5 -44 c-11 -83 -19
-108 -36 -108 -14 -1 -14 -2 2 -11 33 -19 16 -36 -70 -72 -286 -118 -483 -180
-636 -202 -26 -4 -50 -11 -53 -16 -5 -9 10 -7 138 17 135 26 317 88 545 185
52 22 96 39 98 37 1 -2 14 -26 29 -55 l26 -52 -108 -79 c-59 -43 -160 -114
-225 -158 -90 -60 -112 -80 -96 -82 14 -3 50 16 98 49 106 74 260 192 294 224
16 15 32 23 35 19 4 -5 17 -20 29 -34 20 -23 52 -129 68 -222 4 -24 11 -38 20
-38 18 0 18 8 1 90 -14 68 -12 88 6 56 22 -39 123 -141 143 -144 20 -4 20 -4
-1 20 -89 97 -234 283 -234 298 0 11 -14 39 -31 64 -36 51 -34 66 13 89 26 13
29 17 12 17 -12 0 -27 -7 -34 -15 -30 -36 -32 -18 -15 118 l8 57 -49 -2 c-27
-1 -74 -3 -104 -5z"/>
<path d="M1305 565 c60 -55 155 -120 240 -166 l76 -41 77 11 c42 6 147 16 232
22 85 6 157 13 160 16 8 8 -380 -8 -430 -18 -40 -7 -52 -5 -115 26 -38 19
-117 68 -175 110 -58 42 -87 60 -65 40z"/>
<path d="M3100 480 l-35 -7 38 -2 c20 0 37 4 37 9 0 6 -1 9 -2 9 -2 -1 -19 -5
-38 -9z"/>
<path d="M2998 463 c12 -2 32 -2 45 0 12 2 2 4 -23 4 -25 0 -35 -2 -22 -4z"/>
<path d="M4863 375 c0 -33 2 -45 4 -27 2 18 2 45 0 60 -2 15 -4 0 -4 -33z"/>
<path d="M4170 331 c34 -28 144 -85 205 -107 28 -9 111 -31 185 -48 105 -24
136 -35 138 -49 2 -9 -8 -42 -22 -72 l-25 -55 114 0 c62 0 126 5 141 10 l27
11 -22 16 c-13 8 -44 17 -69 19 -26 2 -67 6 -90 9 -43 6 -44 7 -38 39 4 22 2
37 -7 44 -8 7 -66 23 -129 37 -162 35 -263 68 -333 111 -82 49 -106 61 -75 35z"/>
<path d="M4873 205 c0 -22 2 -30 4 -17 2 12 2 30 0 40 -3 9 -5 -1 -4 -23z"/>
<path d="M4871 134 c0 -11 3 -14 6 -6 3 7 2 16 -1 19 -3 4 -6 -2 -5 -13z"/>
</g>
</svg>
