<?xml version="1.0" standalone="no"?>
<!DOCTYPE svg PUBLIC "-//W3C//DTD SVG 20010904//EN"
 "http://www.w3.org/TR/2001/REC-SVG-20010904/DTD/svg10.dtd">
<svg version="1.0" xmlns="http://www.w3.org/2000/svg"
 width="100.000000pt" height="100.000000pt" viewBox="0 0 100.000000 100.000000"
 preserveAspectRatio="xMidYMid meet">

<g transform="translate(0.000000,100.000000) scale(0.100000,-0.100000)"
fill="#000000" stroke="none">
<path d="M496 679 c-14 -11 -26 -27 -26 -35 0 -12 -4 -12 -21 -4 -28 16 -62 6
-104 -31 -30 -26 -35 -38 -35 -73 0 -32 6 -48 24 -66 14 -12 28 -35 31 -51 4
-15 23 -42 42 -60 31 -27 42 -30 75 -26 22 3 47 12 57 21 12 11 28 14 54 9 33
-5 41 -2 71 30 39 41 52 92 35 133 -7 16 -11 37 -10 47 3 21 -19 59 -57 100
-33 35 -96 38 -136 6z m7 -151 c27 -13 36 -28 17 -28 -5 0 -10 -8 -10 -19 0
-42 -53 -54 -74 -16 -6 11 -15 23 -20 27 -10 7 31 47 50 48 5 0 22 -6 37 -12z"/>
<path d="M453 470 c2 -8 10 -15 17 -15 7 0 15 7 17 15 4 13 3 13 -6 0 -10 -13
-12 -13 -22 0 -9 13 -10 13 -6 0z"/>
<path d="M463 313 c-22 -8 -14 -23 12 -23 16 0 25 6 25 15 0 15 -14 18 -37 8z"/>
<path d="M543 313 c-22 -8 -14 -23 12 -23 16 0 25 6 25 15 0 15 -14 18 -37 8z"/>
</g>
</svg>
